<svg width="439" height="443" viewBox="0 0 439 443" fill="none" xmlns="http://www.w3.org/2000/svg">
<path d="M220.656 141.248L192.217 100.751C186.011 91.9129 172.142 97.8252 174.22 108.422L185.366 165.244C186.494 170.993 182.459 176.476 176.634 177.11L105.729 184.82C95.2743 185.957 93.4339 200.389 103.269 204.113L162.597 226.577C168.375 228.765 170.806 235.616 167.7 240.957L130.014 305.753C124.471 315.284 136.17 325.456 144.839 318.642L202.028 273.685C206.993 269.783 214.287 271.402 217.134 277.038L249.37 340.855C254.206 350.429 268.675 346.706 268.29 335.987L265.158 248.815C264.966 243.475 269.006 238.928 274.331 238.49L355.072 231.849C365.901 230.959 367.739 215.868 357.44 212.405L279.085 186.052C273.586 184.202 270.81 178.076 273.045 172.721L296.449 116.647C300.481 106.988 288.843 98.4108 280.81 105.121L235.251 143.176C230.759 146.928 224.02 146.038 220.656 141.248Z" stroke="#D4D43F" stroke-width="10"/>
</svg>
