<svg width="212" height="243" viewBox="0 0 212 243" fill="none" xmlns="http://www.w3.org/2000/svg">
<path d="M10.896 122.383L134.764 5C146.173 5 158.242 9.30009 169.179 16.2335M10.896 122.383L8.44798 178.691M10.896 122.383C26.4377 121.161 44.036 125.638 60.5272 133.958M118.607 197.126L206 64.4438C204.175 55.862 199.905 47.2139 194.021 39.2729M118.607 197.126L62.3036 216.063M118.607 197.126C115.027 184.49 107.506 172.374 97.6269 161.706M8.44798 178.691L6 235L62.3036 216.063M8.44798 178.691C8.44798 178.691 24.6949 181.657 38.3133 191.107C51.9318 200.557 62.3036 216.063 62.3036 216.063M97.6269 161.706L194.021 39.2729M97.6269 161.706C87.2512 150.502 74.2738 140.894 60.5272 133.958M194.021 39.2729C187.393 30.3276 178.716 22.2794 169.179 16.2335M60.5272 133.958L169.179 16.2335" stroke="#D4D43F" stroke-width="10"/>
</svg>
