<svg width="135" height="135" viewBox="0 0 135 135" fill="none" xmlns="http://www.w3.org/2000/svg">
<path d="M94.5284 5.625C89.5774 5.67133 84.6542 6.37113 79.8865 7.70625L79.549 7.8075C76.547 7.29276 73.51 7.00881 70.4646 6.95812C64.204 6.85125 58.8209 8.325 54.4896 10.7831C50.2146 9.34313 41.3496 6.8625 32.0065 7.3575C25.4984 7.70062 18.3996 9.61875 13.1402 15.0075C7.8921 20.3962 5.11898 28.7325 5.70398 40.0781C5.86148 43.2113 6.77835 48.3131 8.30835 54.9281C9.8271 61.5375 11.9759 69.2719 14.6477 76.3312C17.3196 83.3906 20.2502 89.7412 24.829 94.05C27.1127 96.21 30.2571 98.0269 33.964 97.875C36.5684 97.7738 38.9252 96.6656 40.9559 95.0287C41.9459 96.2944 43.0034 96.8456 43.9652 97.3575C45.1746 97.9988 46.3559 98.4375 47.5765 98.73C50.9567 99.5968 54.4773 99.7709 57.9265 99.2419C59.4284 99 61.009 98.5275 62.584 97.8525C62.6402 99.5512 62.7077 101.216 62.7809 102.904C62.9946 108.248 63.1352 113.181 64.789 117.506C65.0534 118.215 65.779 121.854 68.6534 125.066C71.5221 128.284 77.1471 130.286 83.5484 128.959C88.0652 128.019 93.814 126.326 97.6277 121.061C101.396 115.852 103.101 108.383 103.438 96.2606C103.523 95.6081 103.624 95.0513 103.731 94.5281L104.631 94.6069H104.732C109.553 94.8206 114.784 94.1569 119.155 92.1881C123.025 90.4444 125.95 88.6894 128.081 85.5675C128.616 84.7969 129.201 83.8631 129.358 82.2487C129.516 80.6456 128.571 78.1256 126.99 76.9669C123.823 74.6381 121.838 75.5212 119.706 75.9544C117.606 76.4044 115.476 76.6537 113.316 76.7025C119.464 66.6675 123.868 56.0025 126.383 46.5638C127.868 40.995 128.706 35.8594 128.773 31.3706C128.841 26.8819 128.464 22.905 125.691 19.4625C117.023 8.71875 104.833 5.74875 95.4059 5.6475C95.1134 5.64 94.8209 5.63813 94.5284 5.64188V5.625ZM94.2809 8.92688C103.196 8.8425 114.593 11.2725 122.771 21.4144C124.611 23.6925 125.156 27.0225 125.095 31.1287C125.027 35.2294 124.245 40.1344 122.816 45.5119C120.043 55.9294 114.801 68.0681 107.415 78.9694C107.677 79.1511 107.961 79.3004 108.259 79.4137C109.8 80.0325 113.31 80.5612 120.325 79.1663C122.085 78.8006 123.379 78.5588 124.718 79.5488C125.038 79.8146 125.293 80.151 125.461 80.5316C125.63 80.9121 125.709 81.3266 125.691 81.7425C125.616 82.3708 125.378 82.9683 124.999 83.475C123.649 85.4494 120.971 87.3225 117.54 88.8638C114.508 90.2363 110.155 90.9506 106.296 90.9956C104.361 91.0125 102.578 90.8662 101.065 90.4106L100.963 90.3769C100.378 95.8387 99.034 106.633 98.1621 111.555C97.459 115.526 96.2327 118.682 93.8871 121.044C91.5471 123.407 88.2396 124.83 83.7846 125.758C78.2665 126.906 74.2446 125.668 71.6515 123.548C69.064 121.438 67.8771 118.631 67.1627 116.91C66.6734 115.729 66.4202 114.193 66.1727 112.14C65.9006 109.682 65.7186 107.215 65.6271 104.743C65.4656 100.41 65.4131 96.0738 65.4696 91.7381C63.1634 93.78 60.2946 95.1412 57.2177 95.6531C53.5615 96.255 50.2877 95.6644 48.3359 95.1919C47.3789 94.956 46.4536 94.6066 45.5796 94.1513C44.6684 93.6844 43.8077 93.1556 43.234 92.1094C42.8959 91.5122 42.7879 90.812 42.9302 90.1406C43.1144 89.4586 43.5225 88.8584 44.089 88.4362C45.1465 87.6038 46.5359 87.1425 48.634 86.715C52.459 85.9556 53.7921 85.4325 54.6021 84.8081C55.294 84.2738 56.0759 83.1937 57.4596 81.6019L57.4427 81.3938C54.9767 81.3214 52.5591 80.6905 50.3721 79.5488C49.579 80.3587 45.5065 84.5381 40.5396 90.3319C38.4527 92.7562 36.1465 94.1456 33.7109 94.2469C31.2752 94.3481 29.0759 93.1556 27.2084 91.4006C23.4677 87.8794 20.4865 81.8213 17.8877 74.9756C15.3002 68.1244 13.1852 60.4969 11.689 54C10.1815 47.5031 9.29273 42.2663 9.16898 39.7406C8.60648 29.0025 11.194 21.7687 15.6377 17.2069C20.0815 12.645 26.1677 10.9125 32.1077 10.5862C42.7615 9.99 52.8809 13.5956 54.9284 14.3719C58.8715 11.7731 63.9509 10.1531 70.3015 10.2544C73.3115 10.2962 76.3075 10.6736 79.234 11.3794L79.3409 11.3344C80.6309 10.8956 81.9396 10.5281 83.2671 10.2319C86.881 9.41616 90.5707 8.98253 94.2752 8.93812L94.2809 8.92688ZM95.0852 12.3806H94.3146C91.2712 12.4216 88.2387 12.7531 85.2584 13.3706C91.1743 15.9473 96.3722 19.9287 100.401 24.9694C102.841 27.9849 104.866 31.3147 106.42 34.8694C107.005 36.2306 107.398 37.3837 107.618 38.2725C107.73 38.7225 107.809 39.0994 107.831 39.4931C107.852 39.7423 107.831 39.9933 107.77 40.2356L107.736 40.3031C107.899 44.82 106.746 47.88 106.605 52.1888C106.498 55.3162 107.32 58.9894 107.522 62.9888C107.713 66.7575 107.246 70.8919 104.726 74.9531C104.936 75.2006 105.139 75.4481 105.334 75.6956C112 65.5144 116.809 54.2419 119.368 44.64C120.735 39.465 121.466 34.7794 121.528 31.0669C121.585 27.3544 120.87 24.66 119.959 23.5406C112.826 14.6925 103.18 12.4425 95.0852 12.3806ZM69.6321 13.6969C63.349 13.7081 58.8377 15.5531 55.4234 18.3094C51.8965 21.1613 49.534 25.0594 47.9815 29.0588C46.4788 33.0555 45.5599 37.248 45.2534 41.5069L45.3265 41.4675C47.2221 40.4325 49.714 39.4031 52.3802 38.8069C55.0521 38.2106 57.9265 38.025 60.5309 39.0037C63.1352 39.9825 65.2896 42.2888 66.0715 45.7875C69.8121 62.5838 64.9071 68.8275 63.0959 73.5356C62.4164 75.2443 61.8305 76.9888 61.3409 78.7612C61.5659 78.6975 61.7927 78.6525 62.0215 78.6263C63.0096 78.5728 63.9955 78.7661 64.8902 79.1888C66.7127 79.92 67.9615 81.45 68.6365 83.205C68.8127 83.67 68.9384 84.1575 69.0134 84.6675C69.0884 84.8812 69.124 85.1006 69.1202 85.3256C68.9181 91.7482 68.9406 98.1759 69.1877 104.597C69.3115 107.376 69.4915 109.817 69.7221 111.746C69.9471 113.67 70.2734 115.132 70.4815 115.628C71.1565 117.281 72.1521 119.441 73.9521 120.909C75.7521 122.378 78.3227 123.351 83.0309 122.372C87.1146 121.522 89.6346 120.347 91.3221 118.642C92.9984 116.949 94.0052 114.592 94.6465 110.976C95.6084 105.559 97.5434 89.8594 97.774 86.9006C97.6727 84.6787 98.0102 82.9631 98.7415 81.6581C99.5009 80.3194 100.671 79.4981 101.678 79.0537C102.184 78.8288 102.656 78.6825 103.045 78.5756C102.631 78.0035 102.2 77.4445 101.751 76.8994C100.296 75.1978 99.1037 73.2886 98.2127 71.235C97.7834 70.3902 97.3276 69.5592 96.8458 68.7431C96.1427 67.5056 95.2484 65.9587 94.3146 64.2206C92.4415 60.7388 90.4052 56.52 89.3477 52.4081C88.2959 48.3075 88.1384 44.0606 90.8384 41.0625C93.2346 38.4019 97.4308 37.2994 103.736 37.9181C103.551 37.3781 103.438 36.9281 103.123 36.2081C101.7 32.9399 99.8403 29.8801 97.594 27.1125C92.2502 20.4863 83.6046 13.9163 70.2396 13.7025H69.6321V13.6969ZM34.3296 13.9613C33.6546 13.9613 32.9796 13.98 32.3046 14.0175C26.9384 14.3156 21.8646 15.8287 18.2365 19.5637C14.5971 23.2931 12.2065 29.4131 12.724 39.5494C12.8309 41.4619 13.6915 46.8394 15.1652 53.2181C16.639 59.6081 18.7315 67.1175 21.2402 73.7494C23.749 80.3869 26.7977 86.1637 29.689 88.8975C31.1459 90.2644 32.4115 90.8156 33.559 90.7706C34.7121 90.7144 36.0959 90.0731 37.7946 88.0987C40.8883 84.4785 44.0962 80.9573 47.4134 77.5406C45.0696 75.5752 43.2653 73.045 42.1709 70.1888C41.0853 67.3597 40.7557 64.2965 41.2146 61.3013C41.7602 57.4875 41.8334 53.9213 41.7715 51.1088C41.704 48.3638 41.5015 46.5413 41.5015 45.3994V45.2419C41.4957 39.297 42.5608 33.3997 44.6459 27.8325C46.1309 23.9963 48.3471 20.0981 51.6715 16.9425C48.409 15.9019 42.6152 14.3156 36.3434 14.0175C35.6689 13.9814 34.9937 13.9626 34.3184 13.9613H34.3296ZM100.221 41.1975C96.6152 41.2425 94.5902 42.1481 93.5271 43.3294C92.0196 45.0056 91.879 47.9419 92.8127 51.5644C93.7465 55.1869 95.6646 59.2425 97.4759 62.6063C98.3759 64.2938 99.2533 65.8125 99.9621 67.0387C100.676 68.2763 101.2 69.1538 101.515 69.9075C101.815 70.5863 102.13 71.2069 102.46 71.7694C103.855 68.9062 104.108 66.0994 103.961 63.1687C103.776 59.5462 102.91 55.8394 103.039 52.0875C103.18 47.7 104.074 44.8369 104.153 41.445C102.848 41.286 101.535 41.2034 100.221 41.1975ZM56.4584 41.7881C55.3565 41.7965 54.2587 41.9247 53.1846 42.1706C51.0491 42.6741 48.988 43.4532 47.0534 44.4881C46.4046 44.8256 45.7859 45.2175 45.1971 45.6637L45.0846 45.765C45.1184 46.5187 45.2702 48.3469 45.3377 51.03C45.394 53.9719 45.3265 57.7238 44.7415 61.7738C43.4702 70.5938 50.0627 77.895 57.814 77.9062C58.264 76.095 59.0121 74.2612 59.7546 72.3262C61.9146 66.6844 66.1615 62.5725 62.584 46.5131C61.999 43.8862 60.8402 42.8231 59.2427 42.2212C58.3482 41.9106 57.405 41.7639 56.4584 41.7881ZM98.5334 42.84H98.8034C99.1559 42.8512 99.4746 42.8888 99.7596 42.9525C100.018 43.0045 100.266 43.1016 100.491 43.2394C100.593 43.2997 100.682 43.381 100.751 43.4779C100.819 43.5749 100.867 43.6853 100.89 43.8019V43.8469C100.905 44.0941 100.838 44.3393 100.699 44.5444C100.542 44.828 100.345 45.0876 100.114 45.315C99.5688 45.8935 98.8501 46.2785 98.0665 46.4119C97.2983 46.5028 96.5232 46.3131 95.884 45.8775C95.6267 45.7076 95.3939 45.5032 95.1921 45.27C95.0215 45.0879 94.9046 44.862 94.8546 44.6175C94.8424 44.4972 94.8561 44.3757 94.8949 44.2612C94.9337 44.1466 94.9967 44.0418 95.0796 43.9538C95.2594 43.765 95.4707 43.6089 95.704 43.4925C96.5949 43.0834 97.559 42.8577 98.539 42.8288L98.5334 42.84ZM56.9759 43.7062C57.2571 43.7062 57.5515 43.7288 57.859 43.7738C58.669 43.8862 59.3946 44.0944 59.9459 44.4038C60.2159 44.5425 60.4521 44.7244 60.6546 44.9494C60.7596 45.0731 60.8384 45.21 60.8909 45.36C60.9434 45.51 60.9602 45.6656 60.9415 45.8269C60.8903 46.1251 60.7513 46.4013 60.5421 46.62C60.3245 46.882 60.0685 47.1096 59.7827 47.295C59.0842 47.7707 58.2367 47.9766 57.3977 47.8744C56.5465 47.7369 55.764 47.3239 55.1702 46.6987C54.9234 46.447 54.7115 46.1632 54.5402 45.855C54.3651 45.5853 54.2876 45.2636 54.3209 44.9437C54.3996 44.3812 54.8777 44.1 55.3334 43.9313C55.8601 43.7642 56.413 43.6955 56.9646 43.7288L56.9759 43.7062ZM105.126 81.5737H105.109C104.327 81.855 103.686 81.9675 103.14 82.1925C102.597 82.3941 102.146 82.7885 101.875 83.3006C101.537 83.8913 101.256 84.9431 101.34 86.7319C101.583 86.8918 101.848 87.0132 102.128 87.0919C103.033 87.3619 104.558 87.5419 106.262 87.5137C109.648 87.4744 113.822 86.7094 116.038 85.7081C117.855 84.8869 119.543 83.8181 121.05 82.5356C113.642 84.0206 109.463 83.6269 106.892 82.5975C106.258 82.3388 105.663 81.9979 105.126 81.5737ZM62.4434 82.0519H62.3309C62.0496 82.0744 61.639 82.1644 60.8515 83.0194C58.9952 85.0331 58.354 86.2931 56.824 87.4744C55.3052 88.6556 53.3196 89.28 49.3596 90.0675C48.1052 90.315 47.3909 90.5906 46.9071 90.81C47.0646 90.9337 47.0477 90.9675 47.2784 91.0856C47.8577 91.395 48.6059 91.665 49.2021 91.8169C50.9065 92.2275 53.7021 92.7113 56.6215 92.2275C59.5409 91.7438 62.5727 90.3881 65.1602 86.8669C65.6102 86.2594 65.6552 85.3594 65.2896 84.3919C64.9127 83.4356 64.1027 82.6031 63.529 82.3669C63.1867 82.2055 62.8197 82.1028 62.4434 82.0631V82.0519Z" fill="#D4D43F"/>
</svg>
