<svg width="87" height="116" viewBox="0 0 87 116" fill="none" xmlns="http://www.w3.org/2000/svg">
<path d="M3.17188 21.7029C3.17188 9.71681 12.8887 0 24.875 0H62.1146C74.1009 0 83.8177 9.71681 83.8177 21.7029C83.8177 29.2927 79.9217 35.9727 74.0205 39.8517C79.9217 43.7309 83.8177 50.4106 83.8177 58.0005C83.8177 69.9867 74.1009 79.7036 62.1146 79.7036H61.6433C56.0241 79.7036 50.9036 77.568 47.0493 74.0642V94.0613C47.0493 106.207 37.0785 116 24.9919 116C13.0355 116 3.17188 106.313 3.17188 94.2969C3.17188 86.7075 7.06762 80.028 12.9684 76.1488C7.06739 72.2696 3.17188 65.5898 3.17188 58.0005C3.17188 50.4106 7.06784 43.7309 12.9691 39.8517C7.06784 35.9727 3.17188 29.2927 3.17188 21.7029ZM39.9403 43.4064H24.875C16.8148 43.4064 10.281 49.9405 10.281 58.0005C10.281 66.0294 16.7645 72.544 24.7816 72.5942L24.875 72.594H39.9403V43.4064ZM47.0493 58.0005C47.0493 66.0604 53.5832 72.5945 61.6433 72.5945H62.1146C70.1748 72.5945 76.7086 66.0604 76.7086 58.0005C76.7086 49.9405 70.1748 43.4064 62.1146 43.4064H61.6433C53.5832 43.4064 47.0493 49.9405 47.0493 58.0005ZM24.875 79.7036L24.7816 79.7033C16.7645 79.7534 10.281 86.268 10.281 94.2969C10.281 102.327 16.9022 108.891 24.9919 108.891C33.212 108.891 39.9403 102.222 39.9403 94.0613V79.7036H24.875ZM24.875 7.10908C16.8148 7.10908 10.281 13.6431 10.281 21.7029C10.281 29.7631 16.815 36.2969 24.875 36.2969H39.9403V7.10885L24.875 7.10908ZM47.0493 36.2969H62.1146C70.1748 36.2969 76.7086 29.7631 76.7086 21.7029C76.7086 13.6429 70.1748 7.10908 62.1146 7.10908H47.0493V36.2969Z" fill="#D4D43F"/>
</svg>
