<svg width="135" height="135" viewBox="0 0 135 135" fill="none" xmlns="http://www.w3.org/2000/svg">
<path fill-rule="evenodd" clip-rule="evenodd" d="M114.874 97.5207C108.754 97.3519 104.006 97.9763 100.024 99.6525C98.8818 100.114 97.0424 100.114 96.8906 101.554C97.5093 102.161 97.5768 103.151 98.1168 103.989C99.0337 105.508 100.642 107.561 102.094 108.624L106.987 112.123C109.974 113.951 113.344 115.014 116.252 116.837C117.934 117.906 119.616 119.273 121.303 120.414C122.158 121.022 122.676 122.012 123.75 122.394V122.164C123.216 121.478 123.058 120.493 122.529 119.728L120.229 117.523C117.987 114.569 115.302 111.979 112.269 109.845C109.822 108.169 104.467 105.891 103.472 103.078L103.32 102.909C105.002 102.741 106.993 102.144 108.602 101.689C111.206 101.008 113.574 101.154 116.252 100.474L119.925 99.405V98.73C118.547 97.3575 117.551 95.5294 116.1 94.2413C112.139 90.8007 107.917 87.6732 103.472 84.8869C101.098 83.3682 98.0381 82.3725 95.5125 81.0844C94.59 80.6288 93.0656 80.3982 92.5312 79.6388C91.1475 77.9682 90.3881 75.7575 89.3925 73.7832L83.115 60.5475C81.7368 57.5832 80.8931 54.6188 79.2112 51.885C71.3362 38.9475 62.7581 31.1175 49.5956 23.4338C46.7662 21.8363 43.4025 21.15 39.8193 20.3175L34.0818 20.0082C32.8556 19.4794 31.6293 18.0338 30.5606 17.3475C26.2012 14.6082 14.9512 8.67942 11.7337 16.4982C9.6637 21.4369 14.7937 26.3025 16.5375 28.8169C17.8368 30.5607 19.5187 32.5407 20.4412 34.5207C20.9531 35.8144 21.1275 37.1813 21.6618 38.5482C22.8881 41.895 24.0356 45.6244 25.6443 48.7407C26.4993 50.3382 27.3993 52.0144 28.4737 53.46C29.0868 54.3094 30.1612 54.675 30.3862 56.0475C29.3174 57.5663 29.2387 59.8444 28.6256 61.7513C25.8693 70.3463 26.9381 80.9888 30.8475 87.3169C32.0737 89.2182 34.9593 93.4032 38.8799 91.8057C42.3281 90.4332 41.5574 86.1019 42.5531 82.2994C42.7837 81.3882 42.6318 80.7807 43.0874 80.1675V80.3363L46.2262 86.6532C48.6 90.3769 52.7343 94.2582 56.1768 96.8457C58.0106 98.2125 59.4618 100.569 61.7568 101.402V101.177H61.6106C61.1493 100.496 60.4575 100.187 59.8443 99.6582C58.3965 98.2465 57.0665 96.7189 55.8675 95.0907C52.6326 90.724 49.7671 86.0955 47.3006 81.2532C46.0743 78.8907 44.9999 76.3088 44.0099 73.9519C43.5431 73.0407 43.5431 71.6682 42.7837 71.2125C41.6306 72.8832 39.9543 74.3344 39.1049 76.3875C37.6537 79.65 37.5018 83.6832 36.9674 87.8682C36.6581 87.9469 36.7987 87.8682 36.6581 88.0369C34.2112 87.435 33.3675 84.9207 32.4506 82.7944C30.1556 77.3944 29.7731 68.7263 31.7587 62.4882C32.2987 60.8907 34.5937 55.8675 33.6768 54.3488C33.2156 52.9032 31.6856 52.0707 30.8418 50.9288C29.7781 49.3934 28.8556 47.7649 28.0856 46.0632C26.2575 41.7994 25.335 37.0857 23.3437 32.8275C22.4268 30.8475 20.8181 28.7944 19.5187 26.9719C18.0618 24.9188 16.4587 23.4732 15.3112 21.0375C14.9287 20.1882 14.3943 18.8325 15.0075 17.9213C15.1537 17.3138 15.4631 17.0663 16.0762 16.9313C17.0662 16.0819 19.9012 17.1563 20.8968 17.6119C23.7262 18.7538 26.0999 19.8169 28.4737 21.4144C29.5424 22.1738 30.69 23.6194 32.0737 24.0019H33.6768C36.1293 24.5363 38.8799 24.1707 41.1749 24.8569C45.2249 26.1507 48.9037 28.0463 52.1999 30.105C62.324 36.5036 70.5634 45.4807 76.0724 56.115C76.9893 57.8644 77.3662 59.4619 78.21 61.29C79.8243 65.0138 81.81 68.8163 83.4187 72.4669C85.0275 76.0444 86.5574 79.695 88.8524 82.6594C89.9999 84.2569 94.59 85.095 96.6543 85.9332C98.1843 86.6082 100.558 87.2269 101.942 88.0594C104.535 89.6569 107.139 91.485 109.586 93.2344C110.807 94.1457 114.637 96.0469 114.868 97.5657L114.874 97.5207ZM36.8324 31.4325C35.776 31.4258 34.7231 31.5543 33.6993 31.815V31.9838H33.8512C34.4643 33.1988 35.5387 34.0369 36.2981 35.1057L38.0587 38.7563L38.2106 38.5875C39.2793 37.8225 39.8193 36.6075 39.8193 34.785C39.3581 34.2507 39.2849 33.7163 38.9024 33.1875C38.4412 32.4282 37.4456 32.0457 36.8324 31.4382" fill="#D4D43F"/>
</svg>
