<svg width="135" height="135" viewBox="0 0 135 135" fill="none" xmlns="http://www.w3.org/2000/svg">
<path d="M122.063 36.7312C122.119 36.8437 122.119 37.0124 122.119 37.1812V61.3124C122.119 61.8749 121.781 62.5499 121.275 62.8312L100.969 74.5312V97.6499C100.969 98.2687 100.688 98.8311 100.125 99.1686L57.8251 123.525C57.7126 123.581 57.6001 123.75 57.4876 123.75H56.2501C56.2501 123.75 56.2501 123.581 56.0251 123.525L13.7251 99.1686C13.4677 99.0073 13.2554 98.7834 13.1079 98.5178C12.9603 98.2523 12.8824 97.9537 12.8813 97.6499V25.3124C12.8813 25.0312 12.8813 24.8624 12.9376 24.7499C12.9376 24.6937 12.9938 24.6374 12.9938 24.5812C12.9938 24.4687 13.0501 24.4124 13.1063 24.2999C13.1063 24.2437 13.1626 24.1874 13.2188 24.1312L13.3876 23.9624L13.5563 23.7937C13.6126 23.7374 13.6688 23.6812 13.7251 23.6812L34.8751 11.4749C35.4376 11.2499 36.1126 11.2499 36.5626 11.4749L57.8251 23.6812C57.8813 23.7374 57.9376 23.7374 57.9939 23.7937L58.1626 23.9624L58.3313 24.1312C58.3876 24.1874 58.4439 24.2437 58.4439 24.2999C58.5001 24.4124 58.5563 24.4687 58.5563 24.5812C58.5563 24.6374 58.6126 24.6937 58.6126 24.7499C58.6688 24.9187 58.6688 25.0312 58.6688 25.3124V70.3124L76.3313 60.2999V37.1812C76.3313 37.0124 76.3313 36.8437 76.3876 36.7312L76.4438 36.5624C76.4438 36.5624 76.5001 36.3937 76.5563 36.2812C76.5563 36.2249 76.6126 36.1687 76.6688 36.1124L76.8376 35.9437L77.0063 35.7749C77.0626 35.7187 77.1189 35.6624 77.1751 35.6624L98.4376 23.4562C98.8876 23.1187 99.5626 23.1187 100.125 23.4562L121.275 35.6624C121.331 35.6624 121.388 35.7187 121.444 35.7749L121.613 35.9437L121.781 36.1124C121.838 36.1687 121.838 36.2249 121.894 36.2812C121.95 36.3937 121.95 36.5624 122.006 36.5624C122.063 36.5624 122.063 36.5624 122.063 36.7312ZM118.631 60.2999V40.2187L100.969 50.3437V70.3124L118.631 60.2999ZM97.4813 96.6374V76.4999L58.6688 98.6624V118.969L97.4813 96.6374ZM16.3688 28.1249V96.6374L55.1814 118.969V98.6624L34.9313 87.1874H34.8751C34.8188 87.1874 34.7626 87.1874 34.7063 87.0187C34.6501 87.0187 34.5938 86.9624 34.5376 86.9062L34.3688 86.7374C34.3126 86.6812 34.3126 86.6249 34.2563 86.5686C34.2001 86.4562 34.2001 86.3999 34.1438 86.3437C34.1438 86.2312 34.0876 86.1749 34.0876 86.1187C34.0313 86.0624 34.0313 85.9499 34.0313 85.8937V38.3624L16.3688 28.1249ZM35.7751 15.0749L18.1688 25.3124L35.7751 35.3249L53.4376 25.3124L35.7751 15.0749ZM55.1814 72.4499V28.1249L37.5188 38.3624V82.6311L55.1814 72.4499ZM99.2251 26.9999L81.5626 37.1812L99.2251 47.3062L116.831 37.1812L99.2251 26.9999ZM97.4813 50.3437L79.8188 40.2187V60.2999L97.4813 70.3124V50.3437ZM56.9251 95.6249L95.6251 73.4624L78.0751 63.3374L39.3751 85.6686L56.9251 95.6249Z" fill="#D4D43F"/>
</svg>
