<svg width="135" height="135" viewBox="0 0 135 135" fill="none" xmlns="http://www.w3.org/2000/svg">
<path d="M67.5 10.4062C65.9813 10.4062 64.4062 10.8 63.1125 11.5312L21.2625 35.7188C18.5625 37.2938 16.875 40.2188 16.875 43.3688V91.6313C16.875 94.7812 18.5625 97.7062 21.2625 99.2812L32.2312 105.581C37.575 108.169 39.375 108.225 41.85 108.225C49.725 108.225 54.2812 103.444 54.2812 95.1187V47.475C54.2812 46.8 53.7188 46.2375 53.0438 46.2375H47.8125C47.0812 46.2375 46.5188 46.8 46.5188 47.475V95.1187C46.5188 98.8312 42.6938 102.487 36.5625 99.3937L25.0312 92.8125C24.8419 92.6787 24.687 92.5019 24.5794 92.2965C24.4718 92.0911 24.4146 91.8631 24.4125 91.6313V43.3688C24.4125 42.8625 24.6375 42.4125 25.0312 42.1875L66.8813 18.0563C67.2188 17.8313 67.7812 17.8313 68.1187 18.0563L109.969 42.1875C110.362 42.4125 110.588 42.8625 110.588 43.3688V91.6313C110.588 92.0813 110.362 92.5312 109.969 92.8125L68.1187 116.944C67.7812 117.169 67.2188 117.169 66.825 116.944L56.25 110.531C55.8 110.362 55.35 110.306 55.0687 110.475C52.0875 112.162 51.525 112.5 48.7688 113.344C48.0938 113.569 47.025 113.962 49.1625 115.144L63.1125 123.412C64.4625 124.2 65.925 124.594 67.5 124.594C69.075 124.594 70.5375 124.2 71.8875 123.412L113.737 99.2812C116.437 97.7062 118.125 94.7812 118.125 91.6313V43.3688C118.125 40.2188 116.437 37.2938 113.737 35.7188L71.8875 11.5312C70.5938 10.8 69.075 10.4062 67.5 10.4062ZM78.75 45C66.825 45 59.6812 50.0062 59.6812 58.4437C59.6812 67.5 66.7687 70.1437 78.2437 71.2687C91.9125 72.6187 92.9813 74.6437 92.9813 77.3438C92.9813 82.0125 89.2125 83.9812 80.4375 83.9812C69.3 83.9812 66.9375 81.225 66.0938 75.7125C66.0345 75.4276 65.8793 75.1716 65.6541 74.9873C65.4289 74.8031 65.1473 74.7016 64.8562 74.7H59.4562C58.7812 74.7 58.275 75.2062 58.275 75.9375C58.275 82.9125 62.1 91.35 80.4375 91.35C93.6562 91.35 101.25 86.1187 101.25 77.0062C101.25 67.95 95.175 65.5875 82.2937 63.8438C69.3 62.1562 68.0063 61.2562 68.0063 58.2188C68.0063 55.6875 69.1312 52.3125 78.75 52.3125C87.1875 52.3125 90.5062 54.1687 91.8 59.9625C91.9125 60.525 92.4188 60.9187 92.9813 60.9187H98.4375C98.7188 60.9187 99.0563 60.8062 99.2812 60.525C99.5062 60.3 99.675 59.9625 99.5625 59.625C98.775 49.6125 92.1375 45 78.75 45Z" fill="#D4D43F"/>
</svg>
