<svg width="62" height="62" viewBox="0 0 62 62" fill="none" xmlns="http://www.w3.org/2000/svg">
<path d="M30.9998 5.1665C27.6074 5.1665 24.2481 5.8347 21.1138 7.13295C17.9796 8.4312 15.1318 10.3341 12.7329 12.7329C7.88822 17.5776 5.1665 24.1484 5.1665 30.9998C5.1665 42.4182 12.5807 52.1057 22.8365 55.5415C24.1282 55.7482 24.5415 54.9473 24.5415 54.2498V49.884C17.3857 51.434 15.8615 46.4223 15.8615 46.4223C14.6732 43.4257 12.994 42.6248 12.994 42.6248C10.6432 41.0232 13.1748 41.0748 13.1748 41.0748C15.7582 41.2557 17.1273 43.7357 17.1273 43.7357C19.3748 47.6623 23.1723 46.4998 24.6448 45.8798C24.8773 44.2007 25.549 43.064 26.2723 42.4182C20.5373 41.7723 14.5182 39.5507 14.5182 29.7082C14.5182 26.8407 15.4998 24.5415 17.179 22.7073C16.9207 22.0615 16.0165 19.3748 17.4373 15.8873C17.4373 15.8873 19.6073 15.1898 24.5415 18.5223C26.5823 17.954 28.804 17.6698 30.9998 17.6698C33.1957 17.6698 35.4173 17.954 37.4582 18.5223C42.3923 15.1898 44.5623 15.8873 44.5623 15.8873C45.9832 19.3748 45.079 22.0615 44.8207 22.7073C46.4998 24.5415 47.4815 26.8407 47.4815 29.7082C47.4815 39.5765 41.4365 41.7465 35.6757 42.3923C36.6057 43.1932 37.4582 44.769 37.4582 47.1715V54.2498C37.4582 54.9473 37.8715 55.774 39.189 55.5415C49.4448 52.0798 56.8332 42.4182 56.8332 30.9998C56.8332 27.6074 56.165 24.2481 54.8667 21.1138C53.5685 17.9796 51.6656 15.1318 49.2668 12.7329C46.8679 10.3341 44.0201 8.4312 40.8858 7.13295C37.7516 5.8347 34.3923 5.1665 30.9998 5.1665Z" fill="#D4D43F"/>
</svg>
