<svg width="135" height="135" viewBox="0 0 135 135" fill="none" xmlns="http://www.w3.org/2000/svg">
<path d="M11.25 67.5C11.25 82.4184 17.1763 96.7258 27.7252 107.275C32.9485 112.498 39.1495 116.641 45.9741 119.468C52.7986 122.295 60.1131 123.75 67.5 123.75C82.4184 123.75 96.7258 117.824 107.275 107.275C117.824 96.7258 123.75 82.4184 123.75 67.5C123.75 60.1131 122.295 52.7986 119.468 45.9741C116.641 39.1495 112.498 32.9485 107.275 27.7252C102.051 22.5019 95.8505 18.3586 89.0259 15.5318C82.2014 12.7049 74.8869 11.25 67.5 11.25C60.1131 11.25 52.7986 12.7049 45.9741 15.5318C39.1495 18.3586 32.9485 22.5019 27.7252 27.7252C17.1763 38.2742 11.25 52.5816 11.25 67.5ZM29.475 105.525C24.4665 100.543 20.4957 94.6166 17.7923 88.0897C15.0888 81.5628 13.7064 74.5646 13.725 67.5C13.725 53.1562 19.2937 39.6562 29.475 29.475C34.4574 24.4665 40.3834 20.4957 46.9103 17.7923C53.4372 15.0888 60.4354 13.7064 67.5 13.725C81.8438 13.725 95.3438 19.2937 105.525 29.475C110.533 34.4574 114.504 40.3834 117.208 46.9103C119.911 53.4372 121.294 60.4354 121.275 67.5C121.275 81.8438 115.706 95.3438 105.525 105.525C100.543 110.533 94.6166 114.504 88.0897 117.208C81.5628 119.911 74.5646 121.294 67.5 121.275C53.1562 121.275 39.6562 115.706 29.475 105.525ZM35.7188 53.4375C24.4125 66.3187 26.6062 76.95 26.6062 76.95C26.6062 76.95 29.7 69.6375 37.1813 61.875C40.7812 58.3312 43.425 57.0937 45.225 57.0937C47.25 57.0937 48.2062 58.5562 48.2062 59.9062V86.0062C48.2062 88.5938 46.5187 89.1562 45 89.1C44.1382 89.0802 43.2846 88.9284 42.4688 88.65C50.175 99.7313 68.5687 101.25 68.5687 101.25L76.6687 92.8125H76.8938L84.375 99.1687C97.8187 91.1812 104.344 76.3875 104.344 76.3875C98.4375 82.6875 94.4437 84.2063 92.1937 84.15C90.1687 84.15 89.325 82.9688 89.325 82.9688C89.2688 82.4062 88.9875 50.0625 89.3812 50.0625C91.7438 45.7312 99.1687 36.9 99.1687 36.9C85.275 39.6562 77.6813 48.7125 77.6813 48.7125C75.4313 46.9688 70.8188 47.25 70.8188 47.25C72.9562 48.4312 75.0938 51.8063 75.0938 54.675V82.4062C75.0938 82.4062 70.3125 86.5125 66.825 86.5125C64.6875 86.5125 63.3938 85.3313 62.6625 84.375C62.1563 83.7 61.875 83.1937 61.875 83.1937V48.8812C61.4813 49.2187 60.8625 49.5 60.2438 49.5C59.4562 49.4438 58.6688 49.1062 58.1625 47.9812C57.7125 47.1375 57.4875 45.8438 57.4875 44.0438C57.4875 37.6875 64.6875 33.525 64.6875 33.525C55.5187 35.9438 47.025 40.6125 35.7188 53.4375Z" fill="#D4D43F"/>
</svg>
