<svg width="56" height="56" viewBox="0 0 56 56" fill="none" xmlns="http://www.w3.org/2000/svg">
<path d="M28.0022 20.9998C26.1457 20.9998 24.3652 21.7373 23.0524 23.0501C21.7397 24.3628 21.0022 26.1433 21.0022 27.9998C21.0022 29.8564 21.7397 31.6368 23.0524 32.9496C24.3652 34.2623 26.1457 34.9998 28.0022 34.9998C29.8587 34.9998 31.6392 34.2623 32.9519 32.9496C34.2647 31.6368 35.0022 29.8564 35.0022 27.9998C35.0022 26.1433 34.2647 24.3628 32.9519 23.0501C31.6392 21.7373 29.8587 20.9998 28.0022 20.9998ZM28.0022 16.3332C31.0964 16.3332 34.0638 17.5623 36.2518 19.7503C38.4397 21.9382 39.6688 24.9056 39.6688 27.9998C39.6688 31.094 38.4397 34.0615 36.2518 36.2494C34.0638 38.4373 31.0964 39.6665 28.0022 39.6665C24.908 39.6665 21.9405 38.4373 19.7526 36.2494C17.5647 34.0615 16.3355 31.094 16.3355 27.9998C16.3355 24.9056 17.5647 21.9382 19.7526 19.7503C21.9405 17.5623 24.908 16.3332 28.0022 16.3332ZM43.1688 15.7498C43.1688 16.5234 42.8615 17.2653 42.3146 17.8122C41.7676 18.3592 41.0257 18.6665 40.2522 18.6665C39.4786 18.6665 38.7368 18.3592 38.1898 17.8122C37.6428 17.2653 37.3355 16.5234 37.3355 15.7498C37.3355 14.9763 37.6428 14.2344 38.1898 13.6874C38.7368 13.1405 39.4786 12.8332 40.2522 12.8332C41.0257 12.8332 41.7676 13.1405 42.3146 13.6874C42.8615 14.2344 43.1688 14.9763 43.1688 15.7498ZM28.0022 9.33317C22.2295 9.33317 21.2868 9.3495 18.6012 9.4685C16.7718 9.55484 15.5445 9.79984 14.4058 10.2432C13.4534 10.594 12.5922 11.1547 11.8858 11.8835C11.1561 12.5896 10.5947 13.4509 10.2432 14.4035C9.79984 15.5468 9.55484 16.7718 9.47084 18.5988C9.3495 21.1748 9.33317 22.0755 9.33317 27.9998C9.33317 33.7748 9.3495 34.7152 9.4685 37.4008C9.55484 39.2278 9.79984 40.4575 10.2408 41.5938C10.6375 42.6088 11.1042 43.3392 11.8788 44.1138C12.6652 44.8978 13.3955 45.3668 14.3988 45.7542C15.5515 46.1998 16.7788 46.4472 18.5988 46.5312C21.1748 46.6525 22.0755 46.6665 27.9998 46.6665C33.7748 46.6665 34.7152 46.6502 37.4008 46.5312C39.2255 46.4448 40.4528 46.1998 41.5938 45.7588C42.5462 45.408 43.4075 44.8474 44.1138 44.1185C44.9002 43.3345 45.3692 42.6042 45.7565 41.5985C46.1998 40.4505 46.4472 39.2232 46.5312 37.3985C46.6525 34.8248 46.6665 33.9218 46.6665 27.9998C46.6665 22.2272 46.6502 21.2845 46.5312 18.5988C46.4448 16.7742 46.1975 15.5422 45.7565 14.4035C45.4056 13.4511 44.845 12.5899 44.1162 11.8835C43.4101 11.1538 42.5488 10.5924 41.5962 10.2408C40.4528 9.7975 39.2255 9.5525 37.4008 9.4685C34.8272 9.34717 33.9265 9.33317 27.9998 9.33317M27.9998 4.6665C34.3395 4.6665 35.1305 4.68984 37.6202 4.8065C40.1028 4.92317 41.7968 5.31284 43.2832 5.8915C44.8232 6.48417 46.1205 7.28684 47.4178 8.58184C48.6048 9.74788 49.5229 11.1589 50.1082 12.7165C50.6845 14.2028 51.0765 15.8968 51.1932 18.3818C51.3028 20.8692 51.3332 21.6602 51.3332 27.9998C51.3332 34.3395 51.3098 35.1305 51.1932 37.6178C51.0765 40.1052 50.6845 41.7945 50.1082 43.2832C49.5229 44.8407 48.6048 46.2518 47.4178 47.4178C46.2518 48.6048 44.8407 49.5229 43.2832 50.1082C41.7968 50.6845 40.1028 51.0765 37.6202 51.1932C35.1305 51.3028 34.3395 51.3332 27.9998 51.3332C21.6602 51.3332 20.8692 51.3098 18.3795 51.1932C15.8968 51.0765 14.2052 50.6845 12.7165 50.1082C11.1589 49.5229 9.74788 48.6048 8.58184 47.4178C7.39489 46.2518 6.47674 44.8407 5.8915 43.2832C5.31284 41.7968 4.92317 40.1028 4.8065 37.6178C4.6945 35.1305 4.6665 34.3395 4.6665 27.9998C4.6665 21.6602 4.68984 20.8692 4.8065 18.3818C4.92317 15.8945 5.31284 14.2052 5.8915 12.7165C6.47674 11.1589 7.39489 9.74788 8.58184 8.58184C9.74788 7.39489 11.1589 6.47674 12.7165 5.8915C14.2028 5.31284 15.8945 4.92317 18.3795 4.8065C20.8715 4.69684 21.6625 4.6665 28.0022 4.6665" fill="#D4D43F"/>
</svg>
