<svg width="135" height="135" viewBox="0 0 135 135" fill="none" xmlns="http://www.w3.org/2000/svg">
<g clip-path="url(#clip0_18_83)">
<path d="M31.6406 0.5H103.359C120.558 0.5 134.5 14.4421 134.5 31.6406V103.359C134.5 120.558 120.558 134.5 103.359 134.5H31.6406C14.4421 134.5 0.5 120.558 0.5 103.359V31.6406C0.5 14.4421 14.4421 0.5 31.6406 0.5Z" fill="#D4D43F" stroke="black"/>
<path d="M120.234 96.4709C118.699 97.0526 117.004 97.0515 115.47 96.468C113.935 95.8845 112.668 94.7589 111.907 93.3042C107.128 86.1497 101.85 79.318 96.7776 72.3397L94.578 69.4076C88.5379 77.5002 82.4977 85.2701 76.9853 93.3337C76.2673 94.724 75.0685 95.8058 73.612 96.3776C72.1556 96.9494 70.5409 96.9723 69.0689 96.4419L91.7341 66.0358L70.6519 38.5612C72.1695 38.0133 73.8297 38.0058 75.3522 38.5399C76.8746 39.0741 78.1662 40.1172 79.0088 41.4932C83.9051 48.6482 89.3299 55.4799 94.7247 62.7225C100.149 55.5385 105.515 48.6772 110.529 41.5813C111.251 40.2135 112.451 39.1588 113.9 38.6182C115.349 38.0775 116.946 38.0886 118.387 38.6492L110.206 49.4983C106.541 54.3361 102.935 59.2035 99.1232 63.9243C98.816 64.1993 98.5703 64.536 98.4021 64.9124C98.2338 65.2888 98.1469 65.6965 98.1469 66.1088C98.1469 66.5211 98.2338 66.9288 98.4021 67.3052C98.5703 67.6816 98.816 68.0183 99.1232 68.2933C106.131 77.5883 113.08 86.9123 120.234 96.4709ZM14.7656 65.6545C15.3816 62.7225 15.7623 59.5263 16.6129 56.5357C21.6854 38.5032 42.3568 30.9964 56.5777 42.1682C64.9049 48.7073 66.9869 57.9727 66.5766 68.4109H19.6625C18.9 87.0594 32.3583 98.3187 49.5698 92.5717C52.3618 91.5731 54.8612 89.8948 56.8423 87.6884C58.8234 85.482 60.2238 82.817 60.9172 79.9339C61.8263 77.0019 63.2923 76.5036 66.0778 77.3536C65.6189 80.9232 64.3568 84.3423 62.3864 87.3539C60.416 90.3655 57.7884 92.8912 54.7014 94.7412C49.6008 97.531 43.7486 98.6363 37.9818 97.899C32.2151 97.1617 26.8292 94.6197 22.5946 90.6364C18.4051 85.9257 15.8719 79.9736 15.3816 73.6886C15.3816 72.6919 15.0003 71.6947 14.7952 70.7566C14.7758 69.056 14.7659 67.3552 14.7656 65.6545ZM19.7211 64.3936H62.149C61.8848 50.8768 53.3524 41.2886 41.976 41.2011C29.3092 41.0249 20.2489 50.4074 19.6915 64.3351L19.7211 64.3936Z" fill="black"/>
</g>
<defs>
<clipPath id="clip0_18_83">
<rect width="135" height="135" fill="white"/>
</clipPath>
</defs>
</svg>
